<svg width="134" height="156" xmlns="http://www.w3.org/2000/svg" preserveAspectRatio="xMidYMid meet">
 <metadata>Created by potrace 1.10, written by Peter Selinger 2001-2011</metadata>

 <g>
  <title>Layer 1</title>
  <g id="svg_1" fill="#000000" transform="translate(0.000000,156.000000) scale(0.100000,-0.100000)">
   <path id="svg_2" d="m645,1551c-16,-4 -40,-13 -53,-20c-27,-15 -82,-97 -82,-123c0,-20 -15,-24 -26,-7c-11,18 -88,4 -151,-26c-78,-38 -178,-140 -225,-230c-110,-210 -130,-516 -47,-728c56,-143 179,-283 301,-346c93,-47 158,-61 284,-61c227,0 404,79 529,238c84,105 148,270 158,404c6,84 -17,57 -32,-38c-56,-342 -280,-552 -619,-581c-90,-7 -207,17 -302,64c-102,49 -211,158 -263,264c-56,115 -77,210 -77,355c0,238 63,418 189,545c88,87 176,123 265,107c15,-2 27,11 51,56c24,46 40,65 74,83c24,12 49,28 57,34c9,7 19,6 36,-4c13,-8 45,-20 73,-26c27,-7 81,-27 120,-45c207,-96 351,-302 395,-566c14,-80 19,-100 29,-100c9,0 -4,132 -19,190c-68,264 -264,481 -490,543c-73,20 -138,27 -175,18z"/>
   <path id="svg_3" d="m498,1283c-46,-54 -143,-238 -175,-333c-25,-77 -25,-263 0,-340c63,-187 151,-279 275,-286c160,-9 300,74 373,222c31,63 34,77 37,179c3,92 0,120 -18,175c-60,181 -179,294 -357,340c-23,6 -55,22 -71,35c-35,30 -44,31 -64,8zm87,-60c11,-6 42,-15 69,-22c71,-17 123,-47 184,-104c91,-87 140,-196 147,-327c11,-223 -110,-379 -319,-411c-55,-9 -75,-8 -118,7c-126,42 -218,217 -218,415c0,127 31,221 121,375c71,122 68,118 93,96c12,-11 30,-24 41,-29z"/>
  </g>
 </g>
</svg>